<?xml version="1.0" encoding="iso-8859-1"?>
<!-- Generator: Adobe Illustrator 19.0.0, SVG Export Plug-In . SVG Version: 6.00 Build 0)  -->
<svg version="1.1" id="Layer_1" xmlns="http://www.w3.org/2000/svg" xmlns:xlink="http://www.w3.org/1999/xlink" x="0px" y="0px"
	 viewBox="0 0 512 512" style="enable-background:new 0 0 512 512;" xml:space="preserve">
<g>
	<g>
		<path d="M510.507,363.49c-0.515-0.705-52.132-71.292-108.315-140.966c-33.069-41.009-61.252-73.717-83.767-97.21
			c-39.369-41.082-54.04-46.351-62.424-46.351c-8.291,0-22.01,5.509-60.902,46.37c-22.35,23.481-50.578,56.173-83.901,97.166
			C54.573,292.16,2.055,362.734,1.532,363.437c-2.001,2.693-2.046,6.366-0.109,9.106c1.937,2.74,5.415,3.921,8.62,2.935
			l79.943-24.649c0.008-0.002,0.016-0.005,0.024-0.007l90.198-27.81c0.012-0.004,0.025-0.007,0.037-0.011l31.618-9.749
			l-51.403,108.712c-1.137,2.403-0.963,5.221,0.459,7.467c1.422,2.246,3.895,3.607,6.554,3.607h177.054
			c2.658,0,5.131-1.361,6.554-3.607c1.422-2.246,1.596-5.064,0.459-7.467l-51.404-108.713l31.008,9.56
			c0.412,0.164,0.838,0.302,1.284,0.396l89.564,27.615c0.008,0.002,0.016,0.005,0.024,0.007l79.942,24.648
			c0.754,0.233,1.525,0.346,2.285,0.346c2.461-0.001,4.833-1.176,6.316-3.254C512.5,369.848,512.479,366.189,510.507,363.49z
			 M123.237,232.285c33.068-40.681,61.026-73.066,83.099-96.256C243.979,96.482,254.311,94.479,256,94.479
			c2.671,0,14.254,2.996,51.208,41.556c22.205,23.17,50.088,55.533,82.874,96.19c2.746,3.405,5.479,6.811,8.197,10.212
			c-20.565-18.766-39.113-35.167-55.496-49.065c-59.76-50.695-77.77-57.196-86.783-57.196c-6.704,0-19.109,4.199-54.296,31.819
			c-0.041,0.033-0.084,0.064-0.124,0.097c-9.249,7.264-20.064,16.138-32.765,26.98c-16.112,13.755-34.326,29.878-54.502,48.242
			C117.273,239.641,120.248,235.962,123.237,232.285z M80.955,337.378l-52.617,16.224c6.236-8.241,14.258-18.784,23.546-30.863
			c16.527-15.717,32.199-30.446,46.985-44.157C87.391,305.216,82.63,327.693,80.955,337.378z M169.664,310.026l-71.847,22.153
			c3.839-17.529,13.5-51.529,35.424-85.087c16.697-15.087,31.94-28.518,45.646-40.218c2.549-2.176,5.008-4.26,7.396-6.269
			C168.482,249.16,168.786,293.752,169.664,310.026z M332.279,417.521H179.722l8.117-17.165h136.323L332.279,417.521z
			 M316.826,384.842H195.174l36.78-77.785L256,299.643l24.045,7.414L316.826,384.842z M240.942,288.049L256,256.202l15.058,31.846
			l-12.772-3.938c-0.745-0.23-1.515-0.344-2.286-0.344c-0.771,0-1.541,0.115-2.286,0.344L240.942,288.049z M326.848,305.25
			l-35.699-11.008l-28.136-59.504c-1.283-2.712-4.013-4.441-7.013-4.441c-3,0-5.731,1.729-7.013,4.441l-28.136,59.505l-35.82,11.045
			c-0.634-21.226,0.917-74.698,27.611-126.161C244.65,154.095,253.729,151.69,256,151.69c3.107,0,12.903,3.031,42.303,25.565
			c0.066,0.147,0.127,0.294,0.204,0.438C325.837,229.435,327.465,283.77,326.848,305.25z M342.228,309.992
			c0.889-16.525,1.173-62.098-17.369-111.396c14.371,11.985,31.669,27,52.47,45.783c0.211,0.661,0.507,1.304,0.907,1.911
			c22.23,33.718,32.039,68.181,35.93,85.883L342.228,309.992z M431.045,337.378c-1.722-9.958-6.706-33.435-18.897-61.05
			c13.866,12.904,28.927,27.112,45.331,42.805c0.369,0.354,0.766,0.661,1.181,0.927c10.066,13.255,18.708,24.781,25.303,33.635
			L431.045,337.378z"/>
	</g>
</g>
<g>
</g>
<g>
</g>
<g>
</g>
<g>
</g>
<g>
</g>
<g>
</g>
<g>
</g>
<g>
</g>
<g>
</g>
<g>
</g>
<g>
</g>
<g>
</g>
<g>
</g>
<g>
</g>
<g>
</g>
</svg>
