<?xml version="1.0" encoding="iso-8859-1"?>
<!-- Generator: Adobe Illustrator 19.0.0, SVG Export Plug-In . SVG Version: 6.00 Build 0)  -->
<svg version="1.1" id="Layer_1" xmlns="http://www.w3.org/2000/svg" xmlns:xlink="http://www.w3.org/1999/xlink" x="0px" y="0px"
	 viewBox="0 0 512 512" style="enable-background:new 0 0 512 512;" xml:space="preserve">
<g>
	<g>
		<path d="M428.51,88.466h-70.773c-19.817,0-35.94-16.122-35.94-35.94C321.797,23.564,298.233,0,269.27,0
			s-52.527,23.564-52.527,52.527v18.246H189.65c-9.452,0-17.14,7.689-17.14,17.14v25.154C86,136.272,22.117,215.35,22.117,309.08
			c0,111.89,91.03,202.92,202.92,202.92s202.92-91.03,202.92-202.92c0-93.73-63.884-172.808-150.393-196.012V87.914
			c0-9.452-7.689-17.14-17.14-17.14H233.33V52.527c0-19.818,16.123-35.94,35.939-35.94s35.94,16.122,35.94,35.94
			c0,28.963,23.564,52.527,52.527,52.527h70.773c4.58,0,8.294-3.713,8.294-8.294C436.803,92.18,433.09,88.466,428.51,88.466z
			 M411.369,309.08c0,102.744-83.589,186.333-186.333,186.333S38.704,411.824,38.704,309.08s83.589-186.333,186.333-186.333
			S411.369,206.336,411.369,309.08z M260.423,87.361c0.305,0,0.553,0.249,0.553,0.553v21.434
			c-11.668-2.094-23.678-3.188-35.94-3.188c-12.261,0-24.272,1.094-35.94,3.188V87.914c0-0.304,0.248-0.553,0.553-0.553H260.423z"/>
	</g>
</g>
<g>
	<g>
		<path d="M481.59,88.466h-17.693c-4.58,0-8.294,3.713-8.294,8.294c0,4.58,3.713,8.294,8.294,8.294h17.693
			c4.58,0,8.294-3.713,8.294-8.294C489.883,92.18,486.17,88.466,481.59,88.466z"/>
	</g>
</g>
<g>
	<g>
		<path d="M428.51,35.387c-4.58,0-8.294,3.713-8.294,8.294v17.693c0,4.58,3.713,8.294,8.294,8.294c4.58,0,8.294-3.713,8.294-8.294
			V43.68C436.803,39.1,433.09,35.387,428.51,35.387z"/>
	</g>
</g>
<g>
	<g>
		<path d="M428.51,123.853c-4.58,0-8.294,3.713-8.294,8.294v17.693c0,4.58,3.713,8.294,8.294,8.294c4.58,0,8.294-3.713,8.294-8.294
			v-17.693C436.803,127.567,433.09,123.853,428.51,123.853z"/>
	</g>
</g>
<g>
	<g>
		<path d="M471.907,128.427l-12.51-12.509c-3.239-3.239-8.491-3.239-11.728,0c-3.239,3.239-3.239,8.491,0,11.728l12.51,12.51
			c1.619,1.62,3.742,2.43,5.864,2.43c2.122,0,4.245-0.81,5.864-2.43C475.146,136.917,475.146,131.666,471.907,128.427z"/>
	</g>
</g>
<g>
	<g>
		<path d="M409.351,65.874l-12.51-12.51c-3.239-3.24-8.491-3.239-11.728,0c-3.239,3.239-3.239,8.491,0,11.73l12.51,12.509
			c1.619,1.62,3.742,2.43,5.864,2.43c2.122,0,4.245-0.809,5.864-2.43C412.59,74.364,412.59,69.112,409.351,65.874z"/>
	</g>
</g>
<g>
	<g>
		<path d="M409.351,115.919c-3.238-3.239-8.49-3.24-11.728-0.001l-12.51,12.51c-3.239,3.239-3.239,8.491,0,11.73
			c1.619,1.619,3.742,2.43,5.864,2.43c2.122,0,4.245-0.81,5.864-2.43l12.51-12.51C412.59,124.408,412.59,119.157,409.351,115.919z"
			/>
	</g>
</g>
<g>
	<g>
		<path d="M471.906,53.363c-3.239-3.239-8.491-3.239-11.728,0l-12.51,12.51c-3.239,3.239-3.239,8.491,0,11.728
			c1.62,1.621,3.742,2.431,5.864,2.431s4.245-0.809,5.864-2.43l12.51-12.51C475.145,61.854,475.145,56.602,471.906,53.363z"/>
	</g>
</g>
<g>
	<g>
		<path d="M308.818,163.968c-5.978-3.458-12.228-6.573-18.578-9.258c-4.218-1.784-9.084,0.19-10.869,4.408
			c-1.784,4.22,0.189,9.086,4.409,10.87c5.717,2.418,11.347,5.224,16.731,8.339c1.308,0.756,2.736,1.116,4.146,1.116
			c2.863,0,5.65-1.485,7.187-4.142C314.137,171.336,312.783,166.263,308.818,163.968z"/>
	</g>
</g>
<g>
	<g>
		<path d="M191.486,456.286c-33.973-7.71-64.492-27.226-85.934-54.955c-2.802-3.623-8.01-4.289-11.634-1.487
			c-3.624,2.802-4.29,8.011-1.487,11.634c23.792,30.768,57.667,52.425,95.386,60.984c0.618,0.14,1.235,0.208,1.843,0.208
			c3.787,0,7.208-2.611,8.08-6.46C198.752,461.742,195.953,457.299,191.486,456.286z"/>
	</g>
</g>
<g>
	<g>
		<path d="M386.029,262.575c-8.708-30.2-25.761-57.303-49.315-78.379c-3.414-3.054-8.658-2.765-11.711,0.65
			c-3.055,3.413-2.765,8.655,0.649,11.71c21.228,18.996,36.594,43.414,44.438,70.615c1.048,3.634,4.364,5.998,7.965,5.998
			c0.761,0,1.534-0.105,2.302-0.326C384.76,271.573,387.299,266.977,386.029,262.575z"/>
	</g>
</g>
<g>
</g>
<g>
</g>
<g>
</g>
<g>
</g>
<g>
</g>
<g>
</g>
<g>
</g>
<g>
</g>
<g>
</g>
<g>
</g>
<g>
</g>
<g>
</g>
<g>
</g>
<g>
</g>
<g>
</g>
</svg>
