<?xml version="1.0" encoding="iso-8859-1"?>
<!-- Generator: Adobe Illustrator 19.0.0, SVG Export Plug-In . SVG Version: 6.00 Build 0)  -->
<svg version="1.1" id="Layer_1" xmlns="http://www.w3.org/2000/svg" xmlns:xlink="http://www.w3.org/1999/xlink" x="0px" y="0px"
	 viewBox="0 0 512 512" style="enable-background:new 0 0 512 512;" xml:space="preserve">
<g>
	<g>
		<path d="M334.117,165.747l6.112-102.242h-28.207L318.48,0H193.521l6.457,63.505h-28.207l6.112,102.242l-77.767,103.546
			L118.608,512h274.786l18.491-242.707L334.117,165.747z M281.52,33.391l-3.061,30.113h-44.919l-3.061-30.113H281.52z
			 M211.947,175.994l-4.729-79.098h97.564l-4.728,79.098l25.539,34.005H186.409L211.947,175.994z M362.449,478.609H149.552
			l-15.186-199.315l26.965-35.903h189.34l26.965,35.903L362.449,478.609z"/>
	</g>
</g>
<g>
	<g>
		<path d="M177.554,276.621v142.164h156.892V276.621H177.554z M301.055,385.394h-90.11v-75.381h90.11V385.394z"/>
	</g>
</g>
<g>
</g>
<g>
</g>
<g>
</g>
<g>
</g>
<g>
</g>
<g>
</g>
<g>
</g>
<g>
</g>
<g>
</g>
<g>
</g>
<g>
</g>
<g>
</g>
<g>
</g>
<g>
</g>
<g>
</g>
</svg>
