<?xml version="1.0" encoding="iso-8859-1"?>
<!-- Generator: Adobe Illustrator 18.1.1, SVG Export Plug-In . SVG Version: 6.00 Build 0)  -->
<svg version="1.1" id="Capa_1" xmlns="http://www.w3.org/2000/svg" xmlns:xlink="http://www.w3.org/1999/xlink" x="0px" y="0px"
	 viewBox="0 0 290 290" style="enable-background:new 0 0 290 290;" xml:space="preserve">
<g>
	<path id="circle22336-3" d="M145,0C64.978,0,0,64.978,0,145c0,80.022,64.978,145,145,145s145-64.978,145-145S225.022,0,145,0z
		 M145,10c74.618,0,135,60.382,135,135s-60.382,135-135,135S10,219.618,10,145C10,70.382,70.382,10,145,10z M145,17.498
		c-70.566,0-127.5,56.934-127.5,127.5c-0.02,1.381,1.084,2.516,2.465,2.535s2.516-1.084,2.535-2.465c0-0.024,0-0.047,0-0.071
		c0-67.88,54.62-122.5,122.5-122.5c1.381,0.02,2.516-1.084,2.535-2.465s-1.084-2.516-2.465-2.535
		C145.047,17.498,145.024,17.498,145,17.498z M145,110c-19.271,0-35,15.729-35,35s15.729,35,35,35s35-15.729,35-35
		S164.271,110,145,110z M145,120c13.866,0,25,11.134,25,25s-11.134,25-25,25s-25-11.134-25-25S131.134,120,145,120z M145,127.5
		c-9.635,0-17.5,7.865-17.5,17.5c-0.02,1.381,1.084,2.516,2.465,2.535c1.381,0.02,2.516-1.084,2.535-2.465c0-0.024,0-0.047,0-0.071
		c0-6.933,5.567-12.5,12.5-12.5c1.381,0.02,2.516-1.084,2.535-2.465c0.02-1.381-1.084-2.516-2.465-2.535
		C145.047,127.5,145.024,127.5,145,127.5z M269.963,142.463c-1.38,0.02-2.482,1.155-2.463,2.535c0,67.88-54.62,122.5-122.5,122.5
		c-1.381-0.02-2.516,1.084-2.535,2.465s1.084,2.516,2.465,2.535c0.024,0,0.047,0,0.071,0c70.566,0,127.5-56.934,127.5-127.5
		c0.019-1.381-1.084-2.516-2.465-2.535C270.011,142.463,269.987,142.463,269.963,142.463z"/>
</g>
<g>
</g>
<g>
</g>
<g>
</g>
<g>
</g>
<g>
</g>
<g>
</g>
<g>
</g>
<g>
</g>
<g>
</g>
<g>
</g>
<g>
</g>
<g>
</g>
<g>
</g>
<g>
</g>
<g>
</g>
</svg>
