<?xml version="1.0" encoding="iso-8859-1"?>
<!-- Generator: Adobe Illustrator 19.0.0, SVG Export Plug-In . SVG Version: 6.00 Build 0)  -->
<svg version="1.1" id="Layer_1" xmlns="http://www.w3.org/2000/svg" xmlns:xlink="http://www.w3.org/1999/xlink" x="0px" y="0px"
	 viewBox="0 0 490.48 490.48" style="enable-background:new 0 0 490.48 490.48;" xml:space="preserve">
<g>
	<g>
		<g>
			<path d="M385.528,285.52l-19.072,38.144l-28.096-14.048c1.264-1.104,2.456-2.264,3.784-3.304
				c24.848-19.32,39.096-48.456,39.096-79.92V224h32v-48h-32v-3.128v-2.4V144h32V96h-38.024C358.096,40.472,306.312,0,245.24,0
				S132.384,40.472,115.264,96H77.24v48h32v26.48v2.4V176h-32v48h32v2.392c0,31.472,14.248,60.6,39.088,79.92
				c1.336,1.04,2.528,2.2,3.784,3.304l-28.096,14.048l-19.072-38.144L2.376,332.16l79.16,158.32l102.576-46.632l-24.016-48.032
				l23.512-10.808C191.08,412.056,215.848,432,245.24,432c29.392,0,54.16-19.944,61.632-47l23.512,10.808l-24.016,48.032
				l102.576,46.632l79.16-158.32L385.528,285.52z M397.24,192v16h-16v-16H397.24z M397.24,112v16h-16.408
				c-0.32-5.424-0.912-10.768-1.848-16H397.24z M109.24,208h-16v-16h16V208z M109.64,128h-16.4v-16h18.248
				C110.552,117.232,109.96,122.576,109.64,128z M365.248,172.88c-0.008,16.288-4.448,32.288-12.832,46.272
				C347.664,227.08,338.968,232,329.728,232c-6.176,0-12.2-2.176-16.952-6.144l-15.728-13.112
				c-12.592-10.48-19.808-25.896-19.808-42.264c0-14.6,11.872-26.48,26.48-26.48h35.048c14.6,0,26.48,11.872,26.48,26.48V172.88z
				 M125.24,170.48c0-14.6,11.872-26.48,26.48-26.48h35.048c14.6,0,26.48,11.872,26.48,26.48c0,16.376-7.216,31.792-19.8,42.272
				l-15.744,13.112c-4.744,3.96-10.768,6.136-16.952,6.136c-9.24,0-17.936-4.92-22.696-12.848
				c-8.376-13.984-12.816-29.984-12.816-46.28V170.48z M88.944,469.52l-64.84-129.68l18.016-8.184l64.84,129.68L88.944,469.52z
				 M162.376,436.16l-40.832,18.552l-64.84-129.68l40.832-18.552L162.376,436.16z M152.928,381.496l-21.752-43.52l32.416-16.208
				c10.328,13.408,16.368,29.6,17.36,46.848L152.928,381.496z M245.24,416c-26.472,0-48-21.528-48-48s21.528-48,48-48
				s48,21.528,48,48S271.712,416,245.24,416z M300.568,335.984C289.48,316.896,268.864,304,245.24,304
				c-23.624,0-44.24,12.896-55.336,31.984c-6.56-16.424-17.296-31.056-31.752-42.296c-20.256-15.76-32.04-39.272-32.768-64.808
				c7.8,11.808,21.152,19.12,35.376,19.12c9.912,0,19.576-3.504,27.184-9.84l15.744-13.112
				c16.24-13.544,25.552-33.432,25.552-54.568c0-23.424-19.056-42.48-42.48-42.48h-35.04c-10.064,0-19.192,3.664-26.48,9.528V136
				c0-66.168,53.832-120,120-120s120,53.832,120,120v1.528c-7.288-5.864-16.416-9.528-26.48-9.528h-35.04
				c-23.424,0-42.48,19.056-42.48,42.48c0,21.144,9.312,41.032,25.56,54.568l15.728,13.112c7.616,6.344,17.28,9.84,27.192,9.84
				c14.224,0,27.576-7.312,35.376-19.12c-0.736,25.536-12.512,49.048-32.776,64.808
				C317.864,304.936,307.128,319.568,300.568,335.984z M309.52,368.616c0.992-17.248,7.032-33.44,17.36-46.848l32.416,16.208
				l-21.76,43.52L309.52,368.616z M328.112,436.152l64.84-129.672l40.832,18.552l-64.84,129.68L328.112,436.152z M401.528,469.52
				l-18.016-8.184l64.84-129.68l18.016,8.184L401.528,469.52z"/>
			<path d="M245.24,336c-17.648,0-32,14.352-32,32s14.352,32,32,32s32-14.352,32-32S262.888,336,245.24,336z M245.24,384
				c-8.824,0-16-7.176-16-16c0-8.824,7.176-16,16-16c8.824,0,16,7.176,16,16C261.24,376.824,254.064,384,245.24,384z"/>
			<rect x="237.24" y="272" width="16" height="16"/>
			<rect x="237.24" y="240" width="16" height="16"/>
			<rect x="237.24" y="208" width="16" height="16"/>
		</g>
	</g>
</g>
<g>
</g>
<g>
</g>
<g>
</g>
<g>
</g>
<g>
</g>
<g>
</g>
<g>
</g>
<g>
</g>
<g>
</g>
<g>
</g>
<g>
</g>
<g>
</g>
<g>
</g>
<g>
</g>
<g>
</g>
</svg>
