<?xml version="1.0" encoding="iso-8859-1"?>
<!-- Generator: Adobe Illustrator 16.0.0, SVG Export Plug-In . SVG Version: 6.00 Build 0)  -->
<!DOCTYPE svg PUBLIC "-//W3C//DTD SVG 1.1//EN" "http://www.w3.org/Graphics/SVG/1.1/DTD/svg11.dtd">
<svg version="1.1" id="Capa_1" xmlns="http://www.w3.org/2000/svg" xmlns:xlink="http://www.w3.org/1999/xlink" x="0px" y="0px"
	 width="353.743px" height="353.743px" viewBox="0 0 353.743 353.743" style="enable-background:new 0 0 353.743 353.743;"
	 xml:space="preserve">
<g>
	<g>
		<path d="M314.517,1.788c-2.556-1.518-5.849-0.686-7.37,1.868c-1.517,2.554-0.683,5.85,1.875,7.37
			c7.895,4.703,10.219,26.555,1.678,45.348c-4.817,10.606-16.462,27.215-40.272,19.459c-12.463-4.076-18.604-16.229-25.689-30.302
			c-9.45-18.711-20.149-39.927-49.051-44.438c-20.731-3.229-35.728,0.706-44.555,11.719c-14.254,17.799-7.105,48.686-2.756,62.751
			h-34.15c-2.968,0-5.375,2.405-5.375,5.376v23.751c-49.164,19.281-81.975,66.988-81.975,120.044
			c0,71.135,57.875,129.01,129.01,129.01c71.118,0,129.009-57.875,129.009-129.01c0-54.369-33.89-102.469-84.662-121.047V80.938
			c0-2.971-2.399-5.376-5.376-5.376h-35.199c-4.637-13.517-11.218-42.179-0.129-56.032c6.231-7.787,17.849-10.428,34.494-7.811
			c23.454,3.661,32.031,20.659,41.107,38.649c7.502,14.858,15.244,30.215,31.96,35.678c5.165,1.682,10.173,2.509,14.961,2.509
			c16.44,0,30.257-9.722,38.435-27.73C329.873,40.172,329.725,10.856,314.517,1.788z M241.214,219.353
			c0,32.924-18.348,63.004-47.035,77.597v29.911c0,2.971-2.408,5.375-5.376,5.375h-64.504c-2.968,0-5.375-2.404-5.375-5.375v-29.911
			c-28.691-14.593-47.034-44.673-47.034-77.597c0-47.801,37.976-86.681,84.662-86.681
			C203.229,132.671,241.214,171.559,241.214,219.353z M189.476,86.309v13.858c-0.688-0.182-1.369-0.308-2.062-0.478
			c-1.003-0.255-2.016-0.48-3.023-0.707c-2.351-0.53-4.705-0.992-7.064-1.391c-0.955-0.161-1.902-0.323-2.858-0.462
			c-2.629-0.383-5.263-0.671-7.935-0.887c-0.671-0.053-1.333-0.139-2.005-0.184c-6.751-0.452-13.546-0.37-20.276,0.231
			c-0.706,0.066-1.41,0.168-2.112,0.239c-2.607,0.273-5.206,0.622-7.791,1.053c-0.95,0.16-1.892,0.338-2.837,0.522
			c-2.354,0.452-4.693,0.966-7.016,1.546c-1.006,0.254-2.011,0.495-3.011,0.769c-0.622,0.173-1.257,0.301-1.879,0.48V86.298h69.879
			L189.476,86.309L189.476,86.309z"/>
		<circle cx="114.221" cy="224.727" r="10.75"/>
		<path d="M82.641,219.353c0,29.911,17.23,57.135,43.895,69.333c1.914,0.878,3.14,2.789,3.14,4.888v27.896h53.754v-27.896
			c0-2.114,1.224-4.01,3.138-4.888c26.663-12.203,43.896-39.422,43.896-69.333c0-41.865-33.161-75.93-73.912-75.93
			C115.795,143.422,82.641,177.493,82.641,219.353z M114.221,246.229c-11.859,0-21.501-9.643-21.501-21.5
			c0-11.86,9.643-21.503,21.501-21.503c11.856,0,21.501,9.643,21.501,21.503C135.722,236.586,126.071,246.229,114.221,246.229z
			 M194.851,203.226c11.858,0,21.502,9.643,21.502,21.503c0,11.857-9.644,21.5-21.502,21.5c-11.857,0-21.501-9.643-21.501-21.5
			C173.35,212.868,182.994,203.226,194.851,203.226z M161.927,261.012v22.846c0,2.971-2.41,5.375-5.375,5.375
			c-2.968,0-5.375-2.404-5.375-5.375v-22.846c0-2.973,2.407-5.375,5.375-5.375C159.518,255.637,161.927,258.047,161.927,261.012z"/>
		<circle cx="194.851" cy="224.727" r="10.75"/>
	</g>
</g>
<g>
</g>
<g>
</g>
<g>
</g>
<g>
</g>
<g>
</g>
<g>
</g>
<g>
</g>
<g>
</g>
<g>
</g>
<g>
</g>
<g>
</g>
<g>
</g>
<g>
</g>
<g>
</g>
<g>
</g>
</svg>
