<?xml version="1.0" encoding="iso-8859-1"?>
<!-- Generator: Adobe Illustrator 19.0.0, SVG Export Plug-In . SVG Version: 6.00 Build 0)  -->
<svg version="1.1" id="Layer_1" xmlns="http://www.w3.org/2000/svg" xmlns:xlink="http://www.w3.org/1999/xlink" x="0px" y="0px"
	 viewBox="0 0 511.998 511.998" style="enable-background:new 0 0 511.998 511.998;" xml:space="preserve">
<polygon style="fill:#FDD349;" points="8.268,291.387 255.989,229.457 503.71,291.387 255.989,34.819 "/>
<polygon style="fill:#FCB82D;" points="269.26,48.565 255.989,34.819 8.268,291.387 43.256,282.641 "/>
<path style="fill:#54747B;" d="M353.308,477.178h-17.694c-4.886,0-8.847-3.961-8.847-8.847v-35.389c0-4.886,3.961-8.847,8.847-8.847
	h17.694c4.886,0,8.847,3.961,8.847,8.847v35.389C362.155,473.218,358.194,477.178,353.308,477.178z"/>
<path style="fill:#3C6168;" d="M344.461,468.331v-35.389c0-4.886,3.961-8.847,8.847-8.847h-17.694c-4.886,0-8.847,3.961-8.847,8.847
	v35.389c0,4.886,3.961,8.847,8.847,8.847h17.694C348.422,477.178,344.461,473.218,344.461,468.331z"/>
<path style="fill:#54747B;" d="M176.365,477.178H158.67c-4.886,0-8.847-3.961-8.847-8.847v-35.389c0-4.886,3.961-8.847,8.847-8.847
	h17.694c4.886,0,8.847,3.961,8.847,8.847v35.389C185.212,473.218,181.251,477.178,176.365,477.178z"/>
<path style="fill:#3C6168;" d="M167.518,468.331v-35.389c0-4.886,3.961-8.847,8.847-8.847H158.67c-4.886,0-8.847,3.961-8.847,8.847
	v35.389c0,4.886,3.961,8.847,8.847,8.847h17.694C171.479,477.178,167.518,473.218,167.518,468.331z"/>
<polygon style="fill:#FF8B1B;" points="503.71,291.387 255.989,34.819 8.268,291.387 255.989,140.985 "/>
<polygon style="fill:#F57811;" points="255.989,34.819 8.268,291.387 72.41,252.444 269.26,48.565 "/>
<polygon style="fill:#FF8B1B;" points="495.265,282.641 485.131,280.107 503.71,291.387 "/>
<polygon style="fill:#FCB82D;" points="309.072,242.728 326.767,247.151 326.767,108.125 309.072,89.799 "/>
<polygon style="fill:#F57811;" points="309.072,173.215 326.767,183.957 326.767,108.125 309.072,89.799 "/>
<polygon style="fill:#FCB82D;" points="397.544,264.846 415.238,269.269 415.238,199.756 397.544,181.43 "/>
<polygon style="fill:#F57811;" points="397.544,226.93 415.238,237.673 415.238,199.756 404.622,188.761 397.544,181.43 "/>
<polygon style="fill:#FCB82D;" points="202.906,242.728 185.212,247.151 185.212,108.125 202.906,89.799 "/>
<polygon style="fill:#F57811;" points="202.906,173.215 185.212,183.957 185.212,108.125 202.906,89.799 "/>
<polygon style="fill:#FCB82D;" points="114.434,264.846 96.74,269.269 96.74,199.756 114.434,181.43 "/>
<polygon style="fill:#F57811;" points="114.434,226.93 96.74,237.673 96.74,199.756 107.357,188.761 114.434,181.43 "/>
<path d="M511.933,292.439c0.315-2.472-0.527-5.015-2.256-6.812L338.833,108.681c-3.139-3.251-8.477-3.345-11.727-0.207
	c-3.251,3.14-3.345,8.476-0.207,11.727l150.733,156.117l-213.347-53.337v-67.255l164.342,99.779
	c4.175,2.533,9.776,0.819,11.831-3.602c1.757-3.781,0.34-8.416-3.221-10.579L264.283,136.319V55.351l38.82,40.205
	c3.139,3.251,8.478,3.344,11.728,0.207c3.252-3.139,3.343-8.478,0.206-11.728l-53.081-54.976c-0.017-0.018-0.035-0.032-0.052-0.049
	c-0.114-0.115-0.234-0.223-0.355-0.332c-0.081-0.073-0.159-0.152-0.243-0.221c-0.144-0.121-0.296-0.231-0.449-0.343
	c-0.065-0.048-0.127-0.1-0.195-0.145c-1.33-0.909-2.939-1.443-4.672-1.443s-3.342,0.533-4.672,1.443
	c-0.066,0.045-0.129,0.097-0.195,0.145c-0.153,0.111-0.305,0.222-0.449,0.343c-0.084,0.07-0.163,0.148-0.243,0.221
	c-0.121,0.108-0.241,0.217-0.355,0.332c-0.017,0.017-0.035,0.031-0.052,0.049L2.303,285.627c-2.538,2.629-3.036,6.756-1.208,9.912
	c1.825,3.152,5.647,4.789,9.187,3.896l237.415-59.355v12.723L81.743,436.224c-2.2,2.432-2.761,5.932-1.431,8.929
	c1.33,2.998,4.302,4.93,7.581,4.93h53.636v18.247c0,9.452,7.689,17.141,17.141,17.141h17.694c9.452,0,17.141-7.689,17.141-17.141
	v-18.247h124.966v18.247c0,9.452,7.689,17.141,17.141,17.141h17.694c9.452,0,17.141-7.689,17.141-17.141v-18.247h53.636
	c3.28,0,6.251-1.932,7.581-4.93c1.33-2.997,0.769-6.497-1.431-8.929L264.283,252.804V240.08l237.415,59.355
	C506.446,300.596,511.313,297.299,511.933,292.439z M247.695,136.319L76.822,240.063c-3.915,2.378-5.162,7.479-2.786,11.395
	c2.377,3.915,7.478,5.161,11.395,2.786l162.264-98.517v67.255L34.349,276.317L247.695,55.351V136.319z M106.583,433.495
	L218.027,310.32l-55.516,105.48h-3.84c-9.452,0-17.141,7.689-17.141,17.141v0.553H106.583z M176.918,468.331
	c0,0.304-0.249,0.553-0.553,0.553H158.67c-0.304,0-0.553-0.249-0.553-0.553v-35.389c0-0.304,0.249-0.553,0.553-0.553h8.803
	c0.012,0,0.024,0.002,0.036,0.002c0.011,0,0.021-0.002,0.032-0.002h8.823c0.304,0,0.553,0.249,0.553,0.553L176.918,468.331
	L176.918,468.331z M193.506,433.495v-0.553c0-7.872-5.34-14.504-12.584-16.508l75.067-142.627l75.067,142.627
	c-7.244,2.004-12.584,8.636-12.584,16.508v0.553H193.506z M353.861,468.331c0,0.304-0.249,0.553-0.553,0.553h-17.694
	c-0.304,0-0.553-0.249-0.553-0.553v-35.389c0-0.304,0.249-0.553,0.553-0.553h8.823c0.011,0,0.021,0.002,0.032,0.002
	c0.012,0,0.024-0.002,0.036-0.002h8.803c0.304,0,0.553,0.249,0.553,0.553L353.861,468.331L353.861,468.331z M370.449,433.495v-0.553
	c0-9.452-7.689-17.141-17.141-17.141h-3.84l-55.516-105.48l111.444,123.175H370.449z"/>
<g>
</g>
<g>
</g>
<g>
</g>
<g>
</g>
<g>
</g>
<g>
</g>
<g>
</g>
<g>
</g>
<g>
</g>
<g>
</g>
<g>
</g>
<g>
</g>
<g>
</g>
<g>
</g>
<g>
</g>
</svg>
