<?xml version="1.0" encoding="iso-8859-1"?>
<!-- Generator: Adobe Illustrator 19.0.0, SVG Export Plug-In . SVG Version: 6.00 Build 0)  -->
<svg version="1.1" id="Layer_1" xmlns="http://www.w3.org/2000/svg" xmlns:xlink="http://www.w3.org/1999/xlink" x="0px" y="0px"
	 viewBox="0 0 511.999 511.999" style="enable-background:new 0 0 511.999 511.999;" xml:space="preserve">
<g>
	<g>
		<rect x="51.322" y="364.905" width="116.153" height="92.235"/>
	</g>
</g>
<g>
	<g>
		<path d="M271.208,54.862V35.666C271.207,15.999,255.208,0,235.541,0H129.854c-19.666,0-35.666,15.999-35.666,35.666v19.197H51.322
			v92.232H167.47V54.863h-42.865V35.666c0-2.895,2.354-5.249,5.249-5.249h105.688c2.894,0,5.249,2.354,5.249,5.249v19.197h-42.865
			v92.232h42.865v-41.274h73.282V54.862H271.208z"/>
	</g>
</g>
<g>
	<g>
		<rect x="51.322" y="177.515" width="116.153" height="156.973"/>
	</g>
</g>
<g>
	<g>
		<polygon points="240.79,278.29 240.79,177.514 197.925,177.514 197.925,334.486 314.072,334.486 314.072,278.29 		"/>
	</g>
</g>
<g>
	<g>
		<rect x="344.524" y="278.287" width="116.153" height="56.201"/>
	</g>
</g>
<g>
	<g>
		<path d="M344.527,364.904v92.232h42.865v19.197c0,2.895-2.354,5.249-5.249,5.249H276.456c-2.894,0-5.249-2.354-5.249-5.249
			v-19.197h42.865v-92.232H197.925v92.232h42.865v19.197c0,19.667,15.999,35.666,35.666,35.666h105.688
			c19.666,0,35.666-15.999,35.666-35.666v-19.197h42.865v-92.232H344.527z"/>
	</g>
</g>
<g>
	<g>
		<rect x="344.524" y="54.862" width="116.153" height="50.959"/>
	</g>
</g>
<g>
	<g>
		<path d="M271.207,136.24v111.633h189.466V136.24H271.207z M430.22,207.265H301.661v-30.417H430.22V207.265z"/>
	</g>
</g>
<g>
</g>
<g>
</g>
<g>
</g>
<g>
</g>
<g>
</g>
<g>
</g>
<g>
</g>
<g>
</g>
<g>
</g>
<g>
</g>
<g>
</g>
<g>
</g>
<g>
</g>
<g>
</g>
<g>
</g>
</svg>
