<?xml version="1.0" encoding="iso-8859-1"?>
<!-- Generator: Adobe Illustrator 19.0.0, SVG Export Plug-In . SVG Version: 6.00 Build 0)  -->
<svg version="1.1" id="Layer_1" xmlns="http://www.w3.org/2000/svg" xmlns:xlink="http://www.w3.org/1999/xlink" x="0px" y="0px"
	 viewBox="0 0 512 512" style="enable-background:new 0 0 512 512;" xml:space="preserve">
<g>
	<polygon style="fill:#F9D026;" points="292.944,132.252 217.173,132.252 239.559,109.865 214.301,84.607 191.914,106.994 
		191.914,31.223 174.054,31.223 156.193,31.223 156.193,106.994 133.807,84.607 108.548,109.865 130.936,132.252 55.165,132.252 
		55.165,167.973 130.935,167.973 108.548,190.359 133.807,215.618 156.193,193.231 156.193,269.003 174.054,269.003 
		191.914,269.003 191.914,193.231 214.301,215.618 239.559,190.359 217.173,167.973 292.944,167.973 	"/>
	<polygon style="fill:#F9D026;" points="458.19,348.307 382.418,348.307 404.805,325.92 379.547,300.662 357.16,323.049 
		357.16,247.278 339.3,247.278 321.439,247.278 321.439,323.049 299.052,300.662 273.794,325.92 296.182,348.307 220.41,348.307 
		220.41,384.028 296.181,384.028 273.794,406.414 299.052,431.673 321.439,409.286 321.439,485.058 339.3,485.058 357.16,485.058 
		357.16,409.286 379.547,431.673 404.805,406.414 382.418,384.028 458.19,384.028 	"/>
</g>
<path style="fill:#444242;" d="M55.348,0L55.348,0c-9.218,0-16.69,7.473-16.69,16.69c0,9.218,7.473,16.69,16.69,16.69l0,0
	c9.218,0,16.69-7.473,16.69-16.69C72.04,7.473,64.567,0,55.348,0z"/>
<path style="fill:#3A3839;" d="M72.04,16.69C72.04,7.473,64.567,0,55.348,0v33.381C64.567,33.381,72.04,25.908,72.04,16.69z"/>
<path style="fill:#444242;" d="M454.434,459.699L454.434,459.699c-9.218,0-16.69,7.473-16.69,16.69c0,9.218,7.473,16.69,16.69,16.69
	l0,0c9.218,0,16.69-7.473,16.69-16.69C471.126,467.172,463.653,459.699,454.434,459.699z"/>
<path style="fill:#3A3839;" d="M471.126,476.389c0-9.218-7.473-16.69-16.69-16.69v33.381
	C463.653,493.08,471.126,485.607,471.126,476.389z"/>
<path style="fill:#444242;" d="M471.126,197.144L471.126,197.144c-9.218,0-16.69,7.473-16.69,16.69c0,9.218,7.473,16.69,16.69,16.69
	l0,0c9.218,0,16.69-7.473,16.69-16.69S480.344,197.144,471.126,197.144z"/>
<path style="fill:#3A3839;" d="M487.816,213.836c0-9.218-7.473-16.69-16.69-16.69v33.381
	C480.344,230.526,487.816,223.053,487.816,213.836z"/>
<path style="fill:#444242;" d="M167.548,478.619L167.548,478.619c-9.218,0-16.69,7.473-16.69,16.69c0,9.218,7.473,16.69,16.69,16.69
	l0,0c9.218,0,16.69-7.473,16.69-16.69C184.239,486.092,176.766,478.619,167.548,478.619z"/>
<path style="fill:#3A3839;" d="M184.239,495.31c0-9.218-7.473-16.69-16.69-16.69V512C176.766,512,184.239,504.527,184.239,495.31z"
	/>
<path style="fill:#444242;" d="M40.874,268.498L40.874,268.498c-9.218,0-16.69,7.473-16.69,16.69c0,9.218,7.473,16.69,16.69,16.69
	l0,0c9.218,0,16.69-7.473,16.69-16.69C57.565,275.97,50.093,268.498,40.874,268.498z"/>
<path style="fill:#3A3839;" d="M57.565,285.188c0-9.218-7.473-16.69-16.69-16.69v33.381
	C50.093,301.879,57.565,294.407,57.565,285.188z"/>
<path style="fill:#444242;" d="M340.085,25.894L340.085,25.894c-9.218,0-16.69,7.473-16.69,16.69c0,9.218,7.473,16.69,16.69,16.69
	l0,0c9.218,0,16.69-7.473,16.69-16.69C356.775,33.366,349.302,25.894,340.085,25.894z"/>
<path style="fill:#3A3839;" d="M356.775,42.584c0-9.218-7.473-16.69-16.69-16.69v33.381
	C349.302,59.274,356.775,51.802,356.775,42.584z"/>
<g>
	<polygon style="fill:#E7C224;" points="292.943,132.252 217.173,132.252 239.559,109.865 214.301,84.607 191.914,106.994 
		191.914,31.223 174.054,31.223 174.054,269.003 191.914,269.003 191.914,193.231 214.301,215.618 239.559,190.359 217.173,167.973 
		292.943,167.973 	"/>
	<polygon style="fill:#E7C224;" points="458.19,348.307 382.418,348.307 404.805,325.92 379.547,300.662 357.16,323.049 
		357.16,247.278 339.3,247.278 339.3,485.058 357.16,485.058 357.16,409.286 379.547,431.673 404.805,406.414 382.418,384.028 
		458.19,384.028 	"/>
</g>
<g>
</g>
<g>
</g>
<g>
</g>
<g>
</g>
<g>
</g>
<g>
</g>
<g>
</g>
<g>
</g>
<g>
</g>
<g>
</g>
<g>
</g>
<g>
</g>
<g>
</g>
<g>
</g>
<g>
</g>
</svg>
