<?xml version="1.0" encoding="iso-8859-1"?>
<!-- Generator: Adobe Illustrator 19.0.0, SVG Export Plug-In . SVG Version: 6.00 Build 0)  -->
<svg version="1.1" id="Layer_1" xmlns="http://www.w3.org/2000/svg" xmlns:xlink="http://www.w3.org/1999/xlink" x="0px" y="0px"
	 viewBox="0 0 496.2 496.2" style="enable-background:new 0 0 496.2 496.2;" xml:space="preserve">
<path style="fill:#EA4949;" d="M496.2,248.1C496.2,111.1,385.1,0,248.1,0S0,111.1,0,248.1s111.1,248.1,248.1,248.1
	S496.2,385.1,496.2,248.1z"/>
<g>
	<path style="fill:#0F0F0F;" d="M248.1,385.7c-75.9,0-137.6-61.7-137.6-137.6s61.7-137.6,137.6-137.6s137.6,61.7,137.6,137.6
		S324,385.7,248.1,385.7z M248.1,122.5c-69.2,0-125.6,56.3-125.6,125.6c0,69.2,56.3,125.6,125.6,125.6
		c69.2,0,125.6-56.3,125.6-125.6C373.7,178.9,317.3,122.5,248.1,122.5z"/>
	<path style="fill:#0F0F0F;" d="M248.1,295.5c-26.1,0-47.4-21.3-47.4-47.4s21.3-47.4,47.4-47.4s47.4,21.3,47.4,47.4
		S274.2,295.5,248.1,295.5z M248.1,205.7c-23.4,0-42.4,19-42.4,42.4s19,42.4,42.4,42.4s42.4-19,42.4-42.4S271.5,205.7,248.1,205.7z"
		/>
	<rect x="245.1" y="53.3" style="fill:#0F0F0F;" width="6" height="389.7"/>
	<rect x="53.3" y="245.1" style="fill:#0F0F0F;" width="389.7" height="6"/>
	<rect x="243.1" y="378.8" style="fill:#0F0F0F;" width="10" height="64.2"/>
	<rect x="53.3" y="243.1" style="fill:#0F0F0F;" width="64.2" height="10"/>
	<rect x="243.1" y="53.3" style="fill:#0F0F0F;" width="10" height="64.2"/>
	<rect x="378.8" y="243.1" style="fill:#0F0F0F;" width="64.2" height="10"/>
</g>
<g>
</g>
<g>
</g>
<g>
</g>
<g>
</g>
<g>
</g>
<g>
</g>
<g>
</g>
<g>
</g>
<g>
</g>
<g>
</g>
<g>
</g>
<g>
</g>
<g>
</g>
<g>
</g>
<g>
</g>
</svg>
