<?xml version="1.0" encoding="iso-8859-1"?>
<!-- Generator: Adobe Illustrator 18.0.0, SVG Export Plug-In . SVG Version: 6.00 Build 0)  -->
<!DOCTYPE svg PUBLIC "-//W3C//DTD SVG 1.1//EN" "http://www.w3.org/Graphics/SVG/1.1/DTD/svg11.dtd">
<svg version="1.1" id="Capa_1" xmlns="http://www.w3.org/2000/svg" xmlns:xlink="http://www.w3.org/1999/xlink" x="0px" y="0px"
	 viewBox="0 0 442.336 442.336" style="enable-background:new 0 0 442.336 442.336;" xml:space="preserve">
<g>
	<g>
		<g>
			<path d="M228.414,163.06h-14.492c-2.762,0-5-2.239-5-5c0-2.761,2.238-5,5-5h14.492c2.762,0,5,2.239,5,5
				C233.414,160.821,231.176,163.06,228.414,163.06z"/>
		</g>
		<g>
			<path d="M221.167,319.633c-16.224,0-29.422-10.246-29.422-22.84c0-4.051,1.359-8.021,3.932-11.482
				c1.071-1.441,2.84-2.194,4.613-1.981c1.781,0.215,3.311,1.37,4.008,3.024c2.112,5.017,9.049,8.521,16.869,8.521
				c7.82,0,14.757-3.504,16.869-8.521c0.696-1.654,2.227-2.809,4.008-3.024c1.789-0.215,3.542,0.541,4.613,1.981
				c2.573,3.462,3.934,7.432,3.934,11.482C250.591,309.387,237.391,319.633,221.167,319.633z M202.01,298.865
				c1.55,6.016,9.693,10.768,19.157,10.768c9.466,0,17.611-4.753,19.159-10.77c-5.001,3.772-11.808,6.012-19.159,6.012
				C213.816,304.876,207.011,302.637,202.01,298.865z"/>
		</g>
		<g>
			<path d="M229.929,275.465h-12.439v-11.914c0-0.107-0.004-0.215-0.011-0.322c-0.819-12.704,5.874-15.27,6.641-15.521l-0.105,0.031
				c0,0,5.193-2.073,3.222-6.882c-1.673-4.081-5.888-2.756-5.888-2.756c-0.621,0.172-15.149,4.438-13.859,25.607v16.757
				c0,2.761,2.238,5,5,5h17.439c2.762,0,5-2.239,5-5S232.69,275.465,229.929,275.465z"/>
			<g>
				<path d="M228.409,268.556c-1.311,0-2.601-0.54-3.53-1.47c-0.93-0.93-1.46-2.22-1.46-3.54c0-1.31,0.53-2.6,1.46-3.53
					c0.93-0.93,2.22-1.47,3.53-1.47c1.319,0,2.609,0.54,3.54,1.47c0.93,0.93,1.47,2.22,1.47,3.53c0,1.32-0.54,2.61-1.47,3.54
					C231.018,268.016,229.728,268.556,228.409,268.556z"/>
			</g>
		</g>
		<g>
			<path d="M197.434,237.919h-7.434c-2.762,0-5,2.239-5,5s2.238,5,5,5h7.434c2.762,0,5-2.239,5-5S200.196,237.919,197.434,237.919z"
				/>
			<path d="M252.337,237.919h-7.433c-2.762,0-5,2.239-5,5s2.238,5,5,5h7.433c2.762,0,5-2.239,5-5S255.098,237.919,252.337,237.919z"
				/>
			<path d="M211.768,231.035l-30.501-8.417c-2.662-0.734-5.415,0.828-6.15,3.49c-0.734,2.662,0.828,5.415,3.49,6.15l30.501,8.417
				c0.445,0.123,0.893,0.182,1.333,0.182c2.193,0,4.205-1.455,4.817-3.671C215.993,234.523,214.43,231.77,211.768,231.035z"/>
			<path d="M267.22,226.108c-0.735-2.662-3.486-4.224-6.15-3.49l-30.502,8.417c-2.662,0.734-4.225,3.488-3.49,6.15
				c0.612,2.217,2.624,3.671,4.817,3.671c0.44,0,0.888-0.059,1.333-0.182l30.502-8.417
				C266.391,231.523,267.954,228.77,267.22,226.108z"/>
		</g>
		<g>
			<g>
				<path d="M221.219,380.986c-1.32,0-2.61-0.54-3.54-1.47c-0.93-0.93-1.46-2.21-1.46-3.53s0.53-2.61,1.46-3.54
					c0.93-0.93,2.22-1.46,3.54-1.46c1.31,0,2.6,0.53,3.53,1.46c0.93,0.93,1.47,2.22,1.47,3.54s-0.54,2.6-1.47,3.53
					C223.818,380.446,222.528,380.986,221.219,380.986z"/>
			</g>
			<g>
				<path d="M221.219,403.796c-1.32,0-2.61-0.53-3.54-1.46c-0.93-0.93-1.46-2.22-1.46-3.54c0-1.31,0.53-2.6,1.46-3.53
					c0.93-0.93,2.22-1.47,3.54-1.47c1.31,0,2.6,0.54,3.53,1.47c0.93,0.93,1.47,2.22,1.47,3.53c0,1.32-0.54,2.61-1.47,3.54
					C223.818,403.266,222.528,403.796,221.219,403.796z"/>
			</g>
			<g>
				<path d="M221.219,426.616c-1.32,0-2.61-0.53-3.54-1.46c-0.93-0.94-1.46-2.22-1.46-3.54c0-1.32,0.53-2.6,1.46-3.54
					c0.93-0.93,2.22-1.46,3.54-1.46c1.31,0,2.6,0.53,3.53,1.46c0.93,0.94,1.47,2.23,1.47,3.54c0,1.32-0.54,2.6-1.47,3.54
					C223.818,426.086,222.528,426.616,221.219,426.616z"/>
			</g>
		</g>
		<path d="M340.772,335.052c-14.567-14.147-28.353-21.102-34.619-23.789c0.275-10.249,1.158-19.457,1.982-26.13l11.615,14.125
			c1.197,1.457,3.109,2.111,4.953,1.704c1.84-0.412,3.292-1.823,3.756-3.65c10.841-42.716-0.661-70.377-9.432-83.984
			c4.693,0.894,8.908,2.084,12.61,3.13c7.627,2.156,13.138,3.712,17.281,0.576c2.315-1.751,3.489-4.539,3.489-8.285
			c0-1.837-1.008-3.527-2.625-4.4l-63.043-34.032L249.038,50.492l9.728-21.42l30.939-19.865c1.933-1.241,2.771-3.637,2.034-5.811
			c-0.736-2.175-2.87-3.568-5.146-3.379l-50.507,4.171c-1.056,0.087-2.057,0.507-2.858,1.2l-34.976,30.228
			c-0.706,0.61-1.228,1.407-1.505,2.298l-41.168,132.439L92.602,204.35c-1.617,0.873-2.625,2.563-2.625,4.4
			c0,3.746,1.174,6.533,3.489,8.285c4.145,3.136,9.655,1.579,17.28-0.576c3.689-1.042,7.887-2.228,12.559-3.12
			c-8.771,13.608-20.268,41.26-9.429,83.973c0.464,1.827,1.916,3.239,3.757,3.65c1.839,0.41,3.754-0.249,4.952-1.704l11.617-14.129
			c0.827,6.671,1.712,15.877,1.99,26.124c-9.754,4.158-37.673,18.588-58.286,54.346c-11.716,20.322-19.099,44.281-21.945,71.213
			c-0.149,1.41,0.308,2.816,1.256,3.87c0.948,1.054,2.299,1.655,3.717,1.655h320.468c1.418,0,2.769-0.602,3.717-1.655
			c0.948-1.054,1.404-2.46,1.256-3.87C380.782,383.878,358.489,352.258,340.772,335.052z M320.92,284.935l-12.222-14.862
			c-1.234-1.499-3.223-2.149-5.103-1.668c-1.88,0.482-3.311,2.009-3.672,3.916c-0.571,3.026-12.517,68.15,8.363,105.65
			c-17.793-4.252-50.292-16.025-56.664-45.949c4.395-4.016,7.455-8.645,9.567-12.947c3.422-6.973,4.79-13.91,5.336-18.326
			c22.215-2.439,28.689-22.36,28.932-33.212c0.001-0.037,0.001-54.825,0.001-54.825c3.503-0.535,6.859-0.756,10.063-0.74
			C310.575,217.52,328.794,241.062,320.92,284.935z M221.169,332.748c-34.907,0-35.703-35.293-35.72-36.783
			c-0.018-2.75-2.251-4.969-5-4.969c-9.442,0-16.229-3.8-20.169-11.293c-3.059-5.816-3.379-11.868-3.4-12.357v-52.704
			c19.5,3.736,41.575,5.706,64.289,5.706c0.008,0,0.016-0.002,0.023-0.002c0.008,0,0.016,0.002,0.023,0.002
			c22.694,0,44.752-1.967,64.242-5.697v52.688c-0.025,0.564-0.359,6.58-3.4,12.364c-3.941,7.494-10.727,11.294-20.168,11.294
			c-2.739,0-4.969,2.217-5,4.956C256.873,297.455,256.077,332.748,221.169,332.748z M249.087,352.074
			c-4.736,1.275-14.431,2.729-27.871,2.729c-13.57,0-23.297-1.491-27.935-2.775c2.702-4.374,4.8-9.031,6.224-13.967
			c5.709,2.857,12.817,4.686,21.664,4.686c8.848,0,15.957-1.83,21.666-4.688C244.264,343.014,246.371,347.686,249.087,352.074z
			 M221.167,168.78h-18.735V147.34h37.473v21.439h-18.687H221.167z M166.539,168.78l6.664-21.439h19.229v21.439H166.539z
			 M275.774,168.78h-25.87V147.34h19.124L275.774,168.78z M205.871,42.248l32.661-28.227l28.883-2.386l-15.293,9.819
			c-0.811,0.521-1.453,1.263-1.852,2.14L239.141,48.1c-0.51,1.122-0.587,2.392-0.217,3.568l26.957,85.672h-89.57L205.871,42.248z
			 M110.161,206.235l50.859-27.455h120.345l50.86,27.455c-10.268-2.863-25.026-6.439-42.824-2.584
			c-20.23,4.381-43.809,6.697-68.186,6.697c-0.008,0-0.016,0.003-0.023,0.003c-0.008,0-0.016-0.003-0.023-0.003
			c-24.378,0-47.955-2.316-68.184-6.697C135.181,199.794,120.429,203.373,110.161,206.235z M133.637,270.073l-12.22,14.861
			c-7.874-43.872,10.344-67.413,15.399-72.962c3.203-0.018,6.561,0.202,10.063,0.734c0,0,0,54.794,0.001,54.831
			c0.241,10.853,6.716,30.774,28.932,33.213c0.547,4.417,1.914,11.353,5.337,18.326c2.111,4.302,5.17,8.93,9.564,12.945
			c-6.364,29.849-38.856,41.654-56.651,45.932c20.866-37.503,8.921-102.604,8.35-105.631c-0.36-1.907-1.792-3.434-3.673-3.915
			C136.861,267.924,134.871,268.573,133.637,270.073z M324.315,432.336v-28.049c0-2.761-2.238-5-5-5c-2.762,0-5,2.239-5,5v28.049
			H128.02v-28.049c0-2.761-2.238-5-5-5c-2.762,0-5,2.239-5,5v28.049H66.563c3.074-23.281,9.795-44.03,20.008-61.744
			c16.668-28.913,38.792-42.832,49.662-48.291c-0.465,21.645-4.332,45.429-17.044,59.462c-1.391,1.536-1.69,3.771-0.753,5.619
			c0.857,1.692,2.59,2.738,4.457,2.738c0.173,0,0.347-0.009,0.521-0.027c0.704-0.074,17.453-1.892,35.359-9.864
			c11.749-5.23,21.214-11.919,28.259-19.836c2.593,1.168,5.804,1.913,8.994,2.485c6.914,1.241,15.859,1.924,25.188,1.924
			c9.337,0,18.305-0.683,25.252-1.923c3.148-0.563,6.309-1.297,8.888-2.431c7.039,7.894,16.485,14.563,28.208,19.782
			c17.906,7.971,34.655,9.789,35.36,9.862c0.174,0.018,0.348,0.027,0.521,0.027c1.867,0,3.6-1.047,4.457-2.738
			c0.938-1.848,0.638-4.083-0.753-5.619c-12.7-14.02-16.566-37.812-17.033-59.464c16.711,8.399,59.992,36.9,69.658,110.037H324.315z
			"/>
	</g>
</g>
<g>
</g>
<g>
</g>
<g>
</g>
<g>
</g>
<g>
</g>
<g>
</g>
<g>
</g>
<g>
</g>
<g>
</g>
<g>
</g>
<g>
</g>
<g>
</g>
<g>
</g>
<g>
</g>
<g>
</g>
</svg>
