<?xml version="1.0" encoding="utf-8"?>
<!-- Generator: Adobe Illustrator 16.0.0, SVG Export Plug-In . SVG Version: 6.00 Build 0)  -->
<!DOCTYPE svg PUBLIC "-//W3C//DTD SVG 1.1//EN" "http://www.w3.org/Graphics/SVG/1.1/DTD/svg11.dtd">
<svg version="1.1" id="witch" xmlns="http://www.w3.org/2000/svg" xmlns:xlink="http://www.w3.org/1999/xlink" x="0px" y="0px"
	 width="411.957px" height="416.305px" viewBox="0 0 411.957 416.305" enable-background="new 0 0 411.957 416.305"
	 xml:space="preserve">
<g id="parts">
	<polygon fill-rule="evenodd" clip-rule="evenodd" fill="#B5B5CC" points="84.907,89.553 104.961,79.526 126.269,70.931 
		146.143,66.455 167.45,65.202 240.683,76.481 268.256,83.823 282.938,95.282 266.288,142.373 282.938,198.058 269.507,248.192 
		231.909,273.977 231.909,285.255 177.477,292.416 149.545,256.787 136.116,225.273 136.116,192.328 174.075,175.318 
		211.855,150.967 123.94,98.147 88.309,95.282 84.907,89.553 84.907,89.553 	"/>
	<polygon fill-rule="evenodd" clip-rule="evenodd" fill="#FF9900" points="253.931,322.498 281.864,341.119 330.745,381.048 
		330.745,372.453 365.124,388.209 341.844,368.335 368.523,375.318 354.201,358.309 387.326,359.74 371.925,338.254 
		348.469,323.932 300.664,315.337 266.288,298.147 253.931,322.498 253.931,322.498 	"/>
	<polygon fill-rule="evenodd" clip-rule="evenodd" fill="#FFEA00" points="269.507,296.894 279.536,298.147 281.864,302.444 
		287.416,305.309 288.31,308.174 296.366,311.039 299.589,312.471 314.094,315.337 365.124,326.795 320.716,322.498 
		343.993,331.093 309.437,323.932 357.423,345.238 314.094,331.093 355.275,352.399 309.437,335.39 337.371,356.877 
		298.514,339.688 340.773,369.768 314.989,361.174 284.012,342.551 280.61,339.688 292.963,321.065 268.256,309.785 253.931,318.2 
		269.507,296.894 269.507,296.894 	"/>
	<polygon fill-rule="evenodd" clip-rule="evenodd" fill="#FFEA00" points="106.393,233.511 123.583,222.945 128.417,224.557 
		137.19,232.437 141.487,240.492 144.531,248.372 139.518,256.248 124.298,262.337 106.93,238.881 106.393,233.511 106.393,233.511 
			"/>
	<polygon fill-rule="evenodd" clip-rule="evenodd" fill="#515151" points="118.569,233.511 126.806,227.959 138.981,238.881 
		129.133,246.938 118.569,233.511 118.569,233.511 	"/>
	<polygon fill-rule="evenodd" clip-rule="evenodd" fill="#FFFFFF" points="120.539,224.557 123.583,226.168 112.481,235.659 
		129.133,251.595 122.329,253.205 105.856,235.659 108.722,231.72 120.539,224.557 120.539,224.557 	"/>
	<polygon fill-rule="evenodd" clip-rule="evenodd" fill="#FF9900" points="12.571,104.951 21.881,107.278 70.583,150.071 
		118.569,187.314 111.765,196.087 58.229,155.623 17.584,123.931 8.273,111.217 12.571,104.951 12.571,104.951 	"/>
	<polygon fill-rule="evenodd" clip-rule="evenodd" fill="#90E6CA" points="108.184,180.332 114.272,178.542 130.923,178.542 
		136.653,192.148 131.64,212.739 116.778,211.844 107.468,202.355 101.917,202.355 97.62,199.132 101.917,190.717 111.765,190.717 
		116.241,185.703 110.153,181.764 108.184,180.332 108.184,180.332 	"/>
	<polygon fill-rule="evenodd" clip-rule="evenodd" fill="#90E6CA" points="145.248,122.319 147.039,133.42 156.169,145.238 
		158.139,149.177 158.139,162.785 162.437,168.335 167.45,168.335 174.254,163.68 178.551,148.46 185.893,144.521 190.189,157.95 
		187.683,164.396 171.031,177.108 194.666,167.618 216.689,152.399 229.581,125.542 199.321,101.728 152.409,107.278 
		147.754,112.829 145.248,122.319 145.248,122.319 	"/>
	<polygon fill-rule="evenodd" clip-rule="evenodd" fill="#FFEA00" points="169.777,39.06 188.399,35.837 207.378,35.837 
		199.321,75.586 162.974,73.976 159.393,71.647 169.777,39.06 169.777,39.06 	"/>
	<polygon fill-rule="evenodd" clip-rule="evenodd" fill="#FF9900" points="205.05,46.938 199.321,73.976 219.732,73.976 
		223.494,71.647 220.45,46.043 205.05,46.938 205.05,46.938 	"/>
	<polygon fill-rule="evenodd" clip-rule="evenodd" fill="#FF9900" points="176.581,45.327 169.777,67.708 190.906,67.708 
		192.696,44.611 176.581,45.327 176.581,45.327 	"/>
	<polygon fill-rule="evenodd" clip-rule="evenodd" fill="#FFFFFF" points="141.487,192.865 171.031,178.542 196.814,165.112 
		228.506,144.521 203.081,164.396 222.955,156.339 174.791,181.764 230.295,165.112 227.073,168.335 172.285,184.986 
		202.544,184.271 177.298,188.209 192.159,192.148 173.716,190.717 210.422,205.578 209.347,207.905 203.797,206.473 
		200.037,206.473 185.893,200.922 173.716,195.193 159.393,192.148 194.666,213.636 167.987,201.639 159.393,197.699 
		172.822,213.636 174.254,219.006 169.777,215.782 166.018,215.782 164.943,209.516 161.899,208.801 158.677,203.966 
		152.409,200.206 158.139,215.782 153.305,210.412 147.754,197.699 144.531,199.132 147.754,222.945 142.024,209.516 
		145.248,228.675 138.981,211.129 138.981,196.087 141.487,192.865 141.487,192.865 	"/>
	<polygon fill-rule="evenodd" clip-rule="evenodd" fill="#FFFFFF" points="206.304,103.161 219.196,112.829 216.153,106.384 
		225.999,108.89 223.494,102.444 231.549,103.161 231.549,99.222 237.101,100.116 237.101,96.894 246.95,100.833 240.144,104.056 
		248.204,108.89 237.101,108.89 245.157,115.873 233.877,115.873 245.696,121.603 263.064,140.582 233.339,120.708 216.689,115.873 
		206.304,107.278 206.304,103.161 206.304,103.161 	"/>
	<polygon fill-rule="evenodd" clip-rule="evenodd" fill="#FFFFFF" points="182.132,105.667 177.298,111.934 178.551,115.873 
		185.176,118.38 192.696,117.663 198.247,111.934 197.709,106.384 193.771,104.056 182.132,105.667 182.132,105.667 	"/>
	<polygon fill-rule="evenodd" clip-rule="evenodd" fill="#FFFFFF" points="100.843,86.688 127.88,74.691 137.907,72.364 
		150.798,71.647 143.099,74.691 164.406,79.526 140.234,77.198 164.406,84.181 135.758,79.526 160.646,88.299 127.88,82.569 
		161.899,93.85 123.583,85.792 112.481,85.792 100.843,86.688 100.843,86.688 	"/>
	<polygon fill-rule="evenodd" clip-rule="evenodd" fill="#FFFFFF" points="172.285,42.283 164.406,65.918 163.69,69.857 
		166.734,72.364 180.163,72.364 183.386,69.141 166.734,69.141 166.018,66.634 174.254,42.283 181.595,39.776 172.285,42.283 
		172.285,42.283 	"/>
	<polygon fill-rule="evenodd" clip-rule="evenodd" fill="#FFFFFF" points="193.771,41.388 202.544,39.776 202.544,41.388 
		197.709,69.141 195.74,68.425 199.321,42.82 193.771,41.388 193.771,41.388 	"/>
	<polygon fill-rule="evenodd" clip-rule="evenodd" fill="#FFFFFF" points="162.974,119.992 160.646,135.748 161.899,147.744 
		161.183,155.623 167.45,151.683 164.943,143.805 162.974,132.524 165.48,115.873 162.974,119.992 162.974,119.992 	"/>
	<polygon fill-rule="evenodd" clip-rule="evenodd" fill="#FFFFFF" points="150.798,124.646 148.292,126.258 148.829,128.585 
		151.335,128.585 153.305,126.258 153.305,125.542 150.798,124.646 150.798,124.646 	"/>
	<polygon fill-rule="evenodd" clip-rule="evenodd" fill="#FFFFFF" points="185.176,123.035 195.203,117.663 198.784,114.44 
		203.797,113.724 196.814,118.38 188.936,123.931 185.176,123.035 185.176,123.035 	"/>
	<polygon fill-rule="evenodd" clip-rule="evenodd" fill="#FFFFFF" points="157.065,136.643 159.393,142.193 157.065,145.238 
		155.632,142.193 157.065,136.643 157.065,136.643 	"/>
	<polygon fill-rule="evenodd" clip-rule="evenodd" fill="#FFFFFF" points="100.843,192.148 98.336,196.983 103.887,196.983 
		113.198,193.76 104.424,192.865 100.843,192.148 100.843,192.148 	"/>
	<polygon fill-rule="evenodd" clip-rule="evenodd" fill="#FFFFFF" points="115.525,180.332 117.495,182.48 125.91,182.48 
		128.417,179.436 115.525,180.332 115.525,180.332 	"/>
	<polygon fill-rule="evenodd" clip-rule="evenodd" fill="#FFEA00" points="185.893,147.744 191.443,156.339 188.399,165.112 
		198.247,161.173 206.304,156.339 210.422,148.46 209.886,136.643 203.797,138.254 194.666,141.299 188.399,143.805 
		185.893,147.744 185.893,147.744 	"/>
	<polygon fill-rule="evenodd" clip-rule="evenodd" points="159.571,66.634 162.974,55.175 166.197,46.581 167.45,41.029 
		170.852,38.165 182.848,35.3 192.875,23.841 204.156,15.247 214.004,9.338 222.955,6.473 228.506,6.473 235.311,12.381 
		238.71,16.857 239.609,22.229 235.311,26.706 232.983,26.706 220.626,20.976 228.506,31.003 228.506,35.3 225.283,36.553 
		212.93,35.3 225.283,41.029 220.626,48.013 205.23,46.581 206.304,39.418 204.156,36.553 188.578,38.165 172.822,39.418 
		171.926,42.283 161.899,69.499 161.899,72.364 165.123,73.976 190.906,76.481 162.974,76.481 159.571,75.229 157.423,73.976 
		159.571,66.634 159.571,66.634 	"/>
	<polygon fill-rule="evenodd" clip-rule="evenodd" points="177.477,45.148 187.503,43.895 193.949,43.895 197.531,43.895 
		198.425,48.013 196.277,56.786 195.203,65.202 191.98,68.066 185.176,68.066 175.149,68.066 171.926,68.066 187.503,65.202 
		172.822,63.769 188.578,62.336 174.075,59.472 189.473,58.039 175.149,55.175 190.906,52.31 176.224,51.057 191.98,46.581 
		177.477,45.148 177.477,45.148 	"/>
	<polygon fill-rule="evenodd" clip-rule="evenodd" points="221.88,52.31 222.955,58.039 222.955,62.336 222.955,68.066 
		221.88,71.11 202.902,71.11 217.404,66.634 204.156,65.202 219.552,62.336 205.23,59.472 218.658,59.472 205.23,55.175 
		219.552,55.175 206.304,51.057 214.004,51.057 221.88,52.31 221.88,52.31 	"/>
	<polygon fill-rule="evenodd" clip-rule="evenodd" points="225.283,71.11 246.231,73.976 260.736,79.526 270.761,85.255 
		256.259,82.391 246.231,80.958 235.311,83.823 226.358,86.867 210.601,90.985 199.5,95.282 188.578,96.536 178.551,96.536 
		198.425,92.417 224.029,83.823 185.176,90.985 220.626,80.958 185.176,85.255 218.658,78.093 185.176,80.958 200.574,76.481 
		204.156,73.976 221.88,72.364 225.283,71.11 225.283,71.11 	"/>
	<polygon fill-rule="evenodd" clip-rule="evenodd" points="159.571,65.202 140.771,66.634 123.045,71.11 106.393,78.093 
		90.637,85.255 82.938,90.985 81.684,95.282 84.013,101.012 92.965,105.309 102.992,111.039 114.092,115.336 127.343,122.319 
		129.67,121.066 138.444,125.184 142.92,128.228 145.248,133.957 149.545,139.508 152.768,141.119 152.768,143.984 155.095,146.849 
		157.423,148.103 157.423,155.264 157.423,162.426 158.497,168.156 161.899,169.588 165.123,168.156 160.825,165.291 
		159.571,162.426 159.571,154.011 160.825,146.849 156.169,142.373 156.169,138.076 160.825,129.481 156.169,133.957 
		150.798,132.346 147.396,131.093 146.143,128.228 148.47,123.931 151.872,119.454 157.423,118.021 160.825,123.931 
		164.048,113.903 167.45,109.427 171.926,106.741 175.149,109.427 172.822,109.427 174.075,113.903 170.852,113.903 
		172.822,116.769 170.852,118.021 172.822,119.454 170.852,122.319 171.926,125.184 170.852,126.795 171.926,129.481 
		171.926,133.957 175.149,129.481 176.224,125.184 177.477,119.454 179.625,116.769 184.102,118.021 179.625,115.336 
		179.625,111.039 181.774,108.174 188.578,105.309 191.98,105.309 195.203,109.427 193.949,113.903 192.875,115.336 
		190.906,118.021 189.473,118.021 189.473,119.454 193.949,118.021 197.531,115.336 200.574,112.471 202.902,109.427 
		205.23,108.174 208.632,111.039 209.707,113.903 209.707,118.021 205.23,115.336 207.378,121.066 201.828,116.769 204.156,122.319 
		198.425,119.454 200.574,123.931 195.203,122.319 195.203,126.795 191.98,126.795 190.906,128.228 186.25,128.228 191.98,131.093 
		192.875,133.957 197.531,131.093 204.156,128.228 208.632,126.795 215.258,126.795 220.626,126.795 227.432,125.184 
		241.757,128.228 228.506,119.454 219.552,115.336 211.855,111.039 207.378,106.741 204.156,102.444 202.902,99.4 192.875,101.012 
		176.224,102.444 159.571,101.012 146.143,98.147 129.67,92.417 113.019,89.553 99.589,89.553 88.489,90.985 102.992,82.391 
		121.792,73.976 137.37,69.499 151.872,68.066 160.825,66.634 159.571,65.202 159.571,65.202 	"/>
	<polygon fill-rule="evenodd" clip-rule="evenodd" points="166.197,166.902 171.926,163.859 174.075,160.994 175.149,155.264 
		177.477,145.238 180.878,145.238 180.878,142.373 182.848,142.373 184.102,139.508 187.503,139.508 188.578,136.822 
		190.906,135.21 195.203,133.957 191.98,138.076 191.98,141.119 197.531,138.076 201.828,135.21 207.378,131.093 214.004,122.319 
		217.404,122.319 214.004,132.346 211.855,139.508 209.707,145.238 209.707,148.103 207.378,146.849 209.707,143.984 
		204.156,139.508 199.5,142.373 204.156,148.103 205.23,155.264 202.902,152.399 197.531,154.011 199.5,150.967 193.949,143.984 
		188.578,145.238 188.578,148.103 192.875,155.264 189.473,165.291 182.848,171.021 175.149,175.318 168.524,178.183 
		168.524,175.318 174.075,171.021 179.625,168.156 186.25,163.859 188.578,158.129 187.503,154.011 184.102,146.849 
		178.551,149.534 176.224,162.426 172.822,166.902 166.197,169.588 166.197,166.902 166.197,166.902 	"/>
	<polygon fill-rule="evenodd" clip-rule="evenodd" points="197.531,156.876 196.277,162.426 199.5,160.994 197.531,156.876 
		197.531,156.876 	"/>
	<polygon fill-rule="evenodd" clip-rule="evenodd" points="186.25,108.174 189.473,109.427 187.503,112.471 185.176,111.039 
		186.25,108.174 186.25,108.174 	"/>
	<polygon fill-rule="evenodd" clip-rule="evenodd" points="164.048,154.011 168.524,154.011 170.852,158.129 168.524,159.74 
		164.048,160.994 166.197,158.129 166.197,155.264 162.974,155.264 164.048,154.011 164.048,154.011 	"/>
	<polygon fill-rule="evenodd" clip-rule="evenodd" points="205.23,98.147 216.33,93.85 225.283,89.553 237.46,86.867 
		251.962,83.823 263.064,86.867 277.387,89.553 290.815,99.4 296.366,106.741 292.963,111.039 285.086,112.471 278.461,112.471 
		288.49,118.021 304.066,119.454 317.494,118.021 334.147,118.021 345.247,121.066 356.349,129.481 361.9,136.822 349.544,129.481 
		335.221,123.931 325.193,123.931 312.84,125.184 306.394,128.228 298.514,129.481 310.871,129.481 325.193,132.346 
		334.147,138.076 322.865,135.21 306.394,133.957 324.119,139.508 334.147,146.849 341.844,156.876 346.321,162.426 
		351.873,163.859 357.423,163.859 362.975,162.426 356.349,165.291 349.544,166.902 340.95,165.291 332.893,159.74 325.193,150.967 
		315.168,145.238 305.14,143.984 295.112,143.984 283.118,142.373 277.387,141.119 271.835,139.508 281.864,145.238 
		300.664,146.849 314.094,150.967 320.716,158.129 320.716,162.426 317.494,156.876 308.542,149.534 297.44,148.103 
		281.864,146.849 267.362,142.373 260.736,135.21 257.333,129.481 251.962,122.319 245.157,116.769 236.385,115.336 
		226.358,111.039 220.626,108.174 214.004,102.444 230.655,111.039 253.037,115.336 224.029,103.876 259.662,113.903 
		234.057,101.012 264.139,111.039 241.757,101.012 234.057,93.85 226.358,92.417 230.655,99.4 221.88,93.85 226.358,101.012 
		219.552,96.536 220.626,102.444 215.258,98.147 215.258,102.444 207.378,101.012 205.23,98.147 205.23,98.147 	"/>
	<polygon fill-rule="evenodd" clip-rule="evenodd" points="220.626,128.228 218.658,131.093 220.626,132.346 218.658,135.21 
		219.552,138.076 217.404,141.119 218.658,142.373 215.258,146.849 209.707,152.399 192.875,165.291 216.33,152.399 
		226.358,143.984 236.385,135.21 216.33,158.129 238.71,135.21 222.955,155.264 243.008,135.21 243.008,131.093 246.231,129.481 
		254.111,136.822 257.333,145.238 253.037,145.238 250.708,149.534 247.485,148.103 246.231,152.399 243.008,149.534 
		239.609,155.264 236.385,154.011 234.057,158.129 229.581,158.129 226.358,162.426 222.955,162.426 219.552,165.291 
		214.004,168.156 204.156,173.886 255.185,155.264 260.736,154.011 254.111,159.74 264.139,158.129 258.408,162.426 
		267.362,162.426 259.662,165.291 256.259,165.291 253.037,166.902 248.38,165.291 246.231,168.156 241.757,166.902 238.71,171.021 
		234.057,169.588 231.909,172.453 226.358,172.453 222.955,173.886 215.258,175.318 204.156,178.183 218.658,176.75 220.626,182.48 
		221.88,176.75 225.283,183.912 227.432,175.318 231.909,185.345 234.057,176.75 236.385,183.912 244.083,176.75 243.008,183.912 
		237.46,188.209 248.38,189.463 249.634,193.939 219.552,191.074 256.259,203.966 206.304,193.939 261.81,211.129 196.277,198.236 
		261.81,219.724 253.037,220.977 266.288,226.885 253.037,228.316 265.213,235.3 172.822,199.49 263.064,239.777 243.008,232.437 
		257.333,244.074 196.277,213.993 210.601,222.408 212.93,228.316 216.33,225.273 217.404,232.437 220.626,229.57 222.955,235.3 
		226.358,233.866 228.506,238.164 236.385,245.327 178.551,213.993 228.506,258.219 225.283,278.272 249.634,284.001 
		265.213,281.138 280.79,273.977 296.366,265.382 307.468,259.65 318.568,255.354 334.147,253.922 350.798,256.787 367.272,263.948 
		375.328,271.109 369.597,255.354 362.975,246.938 355.275,239.777 345.247,236.911 338.445,236.911 355.275,233.866 368.523,235.3 
		375.328,238.164 383.028,242.461 369.597,229.57 358.498,222.408 347.395,216.856 332.893,212.382 316.243,211.129 
		300.664,211.129 295.112,211.129 286.34,181.048 280.79,166.902 273.984,156.876 298.514,173.886 318.568,179.436 298.514,171.021 
		287.416,163.859 270.761,149.534 295.112,162.426 312.84,168.156 294.217,159.74 266.288,143.984 256.259,133.957 249.634,128.228 
		242.832,121.96 232.268,118.738 242.832,127.511 219.552,122.319 220.626,128.228 220.626,128.228 	"/>
	<polygon fill-rule="evenodd" clip-rule="evenodd" points="159.571,179.436 135.221,189.463 131.819,205.219 134.146,219.724 
		135.221,225.273 140.771,241.029 151.872,262.516 164.048,282.569 177.477,298.327 187.503,306.922 192.875,311.039 
		197.531,295.282 210.601,305.309 220.626,308.174 224.029,308.174 222.955,284.001 204.156,273.977 187.862,259.83 
		185.176,273.977 182.848,252.489 178.551,266.813 177.477,245.327 172.463,258.219 171.21,239.061 166.913,249.804 
		165.301,234.585 161.72,238.344 160.825,228.316 158.497,232.437 156.169,222.408 155.095,225.273 151.872,216.856 
		150.798,216.856 157.423,233.866 170.852,258.219 181.953,274.871 179.625,292.416 178.91,274.154 172.822,286.867 173,265.739 
		167.45,279.704 166.375,256.787 161.899,272.363 161.72,251.235 157.423,263.948 156.349,250.521 150.798,256.787 148.47,244.074 
		144.531,245.327 144.173,235.3 141.846,236.911 137.37,228.316 134.146,208.264 136.474,193.939 165.123,181.048 159.571,179.436 
		159.571,179.436 	"/>
	<polygon fill-rule="evenodd" clip-rule="evenodd" points="161.899,218.11 176.224,236.911 189.473,251.056 207.378,266.813 
		228.506,279.704 224.388,247.476 221.88,273.977 216.689,242.82 215.258,268.245 210.243,238.344 206.304,262.516 202.544,232.257 
		197.531,256.787 194.308,233.151 190.906,248.192 188.578,232.437 185.176,238.164 182.848,228.316 178.551,233.866 
		177.477,225.273 172.822,228.316 166.197,219.724 161.899,218.11 161.899,218.11 	"/>
	<polygon fill-rule="evenodd" clip-rule="evenodd" points="188.399,249.804 192.518,269.679 196.277,256.787 198.425,273.438 
		202.902,262.516 206.662,278.81 209.707,266.813 212.571,281.853 214.004,271.109 218.658,284.897 219.732,274.871 
		225.642,285.435 226.358,275.229 205.23,261.084 191.98,251.056 188.399,249.804 188.399,249.804 	"/>
	<polygon fill-rule="evenodd" clip-rule="evenodd" points="139.16,189.821 131.819,176.75 125.194,178.183 116.42,178.183 
		110.69,179.436 120.717,181.048 130.745,179.436 134.146,189.463 131.998,198.058 127.343,192.328 128.417,199.49 124.12,193.939 
		124.12,201.102 119.644,195.372 118.39,198.236 101.917,201.817 98.336,198.773 99.589,202.355 102.992,203.966 121.792,202.355 
		117.853,206.473 113.019,206.831 111.765,205.219 109.616,205.219 114.092,209.516 117.315,213.993 128.417,213.993 
		133.072,216.856 139.16,189.821 139.16,189.821 	"/>
	<polygon fill-rule="evenodd" clip-rule="evenodd" points="115.167,185.345 69.688,148.103 41.936,122.319 22.956,106.741 
		12.929,102.444 8.453,106.741 6.304,112.471 7.378,116.769 12.929,122.319 40.682,145.238 77.387,172.453 106.393,193.939 
		114.092,191.074 118.39,185.345 110.69,189.463 107.468,182.48 105.14,186.777 101.738,179.436 99.589,182.48 97.262,175.318 
		94.039,178.183 90.637,169.588 87.415,175.318 82.938,165.291 79.536,168.156 76.313,160.994 71.836,162.426 70.583,156.876 
		68.435,158.129 66.286,152.399 62.884,155.264 58.587,149.534 56.259,149.534 52.857,145.238 50.529,145.238 45.158,139.508 
		40.682,138.076 36.206,130.376 32.087,132.524 29.76,123.572 26.179,128.228 26.716,118.021 22.061,124.289 22.598,114.262 
		18.479,122.319 19.554,110.501 14.182,116.769 16.152,106.741 26.179,112.471 66.286,148.103 113.019,185.345 115.167,185.345 
		115.167,185.345 	"/>
	<polygon fill-rule="evenodd" clip-rule="evenodd" points="95.113,203.966 105.14,209.516 102.992,216.856 107.468,213.993 
		105.14,222.408 110.69,215.247 106.393,226.885 113.019,219.724 114.092,218.11 121.792,224.02 108.363,235.3 110.69,239.777 
		129.67,256.787 142.92,246.938 155.095,271.109 144.173,282.569 138.444,288.119 133.072,282.569 135.221,289.732 131.819,289.732 
		127.343,281.138 129.67,279.704 131.819,282.569 130.745,278.272 134.146,275.229 138.444,279.704 137.37,273.977 139.518,273.977 
		127.343,269.679 115.167,265.382 110.69,256.787 105.14,242.461 99.589,226.885 95.113,215.247 88.489,208.264 95.113,203.966 
		95.113,203.966 	"/>
	<polygon fill-rule="evenodd" clip-rule="evenodd" points="116.42,235.3 128.417,248.192 137.37,239.777 128.417,242.461 
		134.146,235.3 126.269,241.029 131.819,235.3 123.045,238.164 128.417,232.437 120.717,235.3 126.269,228.316 116.42,235.3 
		116.42,235.3 	"/>
	<polygon fill-rule="evenodd" clip-rule="evenodd" points="126.269,222.408 137.37,229.57 137.37,233.866 126.269,222.408 
		126.269,222.408 	"/>
	<polygon fill-rule="evenodd" clip-rule="evenodd" points="222.955,286.867 247.485,302.444 225.283,301.19 225.283,304.056 
		244.083,308.174 221.88,311.039 221.88,313.903 244.083,312.471 225.283,318.2 228.506,321.065 245.157,316.946 238.71,321.065 
		241.757,322.498 247.485,319.813 254.111,322.498 270.761,298.327 270.761,285.255 266.288,285.255 266.288,295.282 
		261.81,286.867 261.81,298.327 250.708,282.569 246.231,282.569 253.037,292.416 227.432,276.84 222.955,286.867 222.955,286.867 	
		"/>
	<polygon fill-rule="evenodd" clip-rule="evenodd" points="273.089,299.759 256.259,325.361 271.835,308.174 260.736,328.229 
		276.313,311.039 265.213,329.659 280.79,312.471 269.687,332.704 284.012,315.337 273.089,335.39 287.416,316.946 276.313,338.254 
		290.815,319.813 280.79,341.119 298.514,316.946 295.112,311.039 289.741,312.471 288.49,306.922 281.864,306.922 281.864,301.19 
		276.313,302.444 276.313,299.759 273.089,299.759 273.089,299.759 	"/>
	<polygon fill-rule="evenodd" clip-rule="evenodd" points="284.012,343.805 296.725,351.862 318.568,372.453 334.147,389.822 
		341.844,402.713 345.247,409.875 348.469,408.264 349.544,404.145 345.247,398.237 326.268,374.064 359.572,404.145 
		364.226,401.101 365.3,396.983 358.498,395.371 330.745,374.064 330.745,366.901 324.119,371.199 325.193,362.426 318.568,365.292 
		320.716,358.309 314.094,361.174 315.168,355.443 310.871,356.877 311.945,351.146 306.394,352.579 306.394,346.849 
		298.514,348.282 299.768,342.551 296.725,342.551 296.366,339.867 294.397,337.896 290.815,335.39 287.591,339.328 
		284.012,343.805 284.012,343.805 	"/>
	<polygon fill-rule="evenodd" clip-rule="evenodd" points="295.112,332.704 337.549,362.426 373,382.659 376.223,381.048 
		357.423,371.199 384.102,379.794 376.223,371.199 387.504,371.199 390.728,366.901 369.597,362.426 345.247,354.011 
		329.491,349.892 335.221,343.984 325.193,346.849 328.596,341.119 320.716,343.984 321.791,339.867 315.168,341.119 
		317.494,337.001 311.945,338.254 311.945,335.39 305.14,333.956 295.112,332.704 295.112,332.704 	"/>
	<polygon fill-rule="evenodd" clip-rule="evenodd" points="304.246,311.755 327.522,318.2 350.798,324.109 371.925,325.361 
		388.58,324.109 389.654,325.361 368.523,328.229 400.753,326.795 406.304,325.361 403.976,329.659 359.572,332.704 
		403.976,333.956 399.678,337.001 387.504,338.254 388.58,341.119 377.477,345.416 336.295,335.39 310.871,325.361 352.947,337.001 
		354.201,331.093 329.491,325.361 355.275,328.229 311.945,316.946 305.14,314.798 297.62,316.589 304.246,311.755 304.246,311.755 
			"/>
	<polygon fill-rule="evenodd" clip-rule="evenodd" points="400.753,348.282 393.951,352.579 398.604,355.443 393.053,356.877 
		395.202,361.174 393.053,362.426 342.918,349.892 387.504,358.309 354.201,346.849 389.654,354.011 361.9,345.416 400.753,348.282 
		400.753,348.282 	"/>
	<polygon fill-rule="evenodd" clip-rule="evenodd" points="370.851,396.983 329.491,368.335 374.074,395.371 334.147,365.292 
		380.7,392.686 378.551,398.237 375.328,398.237 371.925,401.101 370.851,396.983 370.851,396.983 	"/>
</g>
</svg>
